<svg viewBox="0 0 96 96" xmlns="http://www.w3.org/2000/svg" xmlns:xlink="http://www.w3.org/1999/xlink" id="Icons_Peacock" overflow="hidden"><path d="M29.32 23.19C28.701 23.1885 28.1176 22.9005 27.74 22.41L27.13 21.62C26.4562 20.7446 26.6196 19.4888 27.495 18.815 28.3704 18.1412 29.6262 18.3046 30.3 19.18L30.91 19.97C31.5838 20.8453 31.4205 22.101 30.5452 22.7748 30.1941 23.0451 29.7631 23.1912 29.32 23.19Z" fill="#385723"/><path d="M39.44 17.26C38.6204 17.2608 37.8833 16.7614 37.58 16L37.21 15.07C36.8514 14.0253 37.4075 12.8876 38.4523 12.529 39.4335 12.1921 40.5095 12.6615 40.93 13.61L41.3 14.54C41.702 15.5672 41.1965 16.726 40.17 17.13 39.9376 17.2211 39.6895 17.2653 39.44 17.26Z" fill="#385723"/><path d="M21 31.46C20.5752 31.4586 20.1619 31.322 19.82 31.07L19 30.48C18.091 29.8525 17.8627 28.6069 18.4902 27.6979 19.1177 26.7889 20.3633 26.5606 21.2724 27.1881 21.3056 27.2111 21.3382 27.2351 21.37 27.26L22.18 27.85C23.0692 28.5053 23.2588 29.7574 22.6035 30.6465 22.2279 31.1562 21.6331 31.4579 21 31.46Z" fill="#385723"/><path d="M50.91 14.53C49.8686 14.5338 48.9985 13.7377 48.91 12.7L48.83 11.7C48.7416 10.5954 49.5654 9.62837 50.67 9.54 51.7746 9.45163 52.7416 10.2754 52.83 11.38L52.92 12.38C53.0116 13.4808 52.1935 14.4474 51.0928 14.539 51.0885 14.5393 51.0843 14.5397 51.08 14.54Z" fill="#385723"/><path d="M62.63 15.06C62.4971 15.0748 62.3629 15.0748 62.23 15.06 61.1521 14.8391 60.4551 13.7891 60.67 12.71L60.86 11.71C61.0518 10.6222 62.0891 9.89583 63.1769 10.0876 64.2646 10.2794 64.991 11.3167 64.7993 12.4045 64.7936 12.4365 64.7872 12.4683 64.78 12.5L64.59 13.5C64.3836 14.4154 63.5684 15.0642 62.63 15.06Z" fill="#385723"/><path d="M13 52.92 12.88 52.92 11.88 52.85C10.7754 52.781 9.93596 51.8296 10.005 50.725 10.074 49.6204 11.0254 48.781 12.13 48.85L13.13 48.91C14.2346 48.9431 15.1031 49.8654 15.07 50.97 15.0369 52.0746 14.1146 52.9431 13.01 52.91Z" fill="#385723"/><path d="M15.17 41.4C14.9413 41.4 14.7145 41.3594 14.5 41.28L13.56 41C12.5065 40.6679 11.9218 39.5446 12.2539 38.4912 12.5861 37.4377 13.7093 36.853 14.7628 37.1851 14.8057 37.1986 14.8481 37.2136 14.89 37.23L15.84 37.56C16.8839 37.9212 17.4373 39.0602 17.0761 40.104 16.7954 40.9152 16.0284 41.4569 15.17 41.45Z" fill="#385723"/><path d="M12.79 64.85C11.6854 64.9715 10.6915 64.1746 10.57 63.07 10.4485 61.9654 11.2454 60.9715 12.35 60.85L13.35 60.64C14.416 60.3507 15.5147 60.9804 15.804 62.0464 16.0933 63.1124 15.4636 64.2111 14.3976 64.5004 14.339 64.5163 14.2798 64.5295 14.22 64.54L13.22 64.76C13.0799 64.8038 12.9359 64.8339 12.79 64.85Z" fill="#385723"/><path d="M85 25.47C86.3939 25.3424 87.6893 24.6965 88.63 23.66L93.49 23.66C92.5511 22.2617 91.4162 21.0055 90.12 19.93L90.12 19.84C90.1174 16.9961 88.0014 14.5974 85.18 14.24L88.11 11.3C89.1744 11.5952 90.2766 10.9716 90.5718 9.90725 90.867 8.84285 90.2434 7.74069 89.179 7.44549 88.4645 7.24733 87.6989 7.46074 87.19 8 86.6881 8.50644 86.4938 9.24175 86.68 9.93L84.48 12.13 84.48 8.22C85.0951 7.8649 85.4757 7.21022 85.48 6.5 85.48 5.39543 84.5846 4.5 83.48 4.5 82.3754 4.5 81.48 5.39543 81.48 6.5 81.4843 7.21022 81.8649 7.8649 82.48 8.22L82.48 12.09 80.4 10C80.5823 9.31484 80.3883 8.58436 79.89 8.08 79.112 7.29592 77.8457 7.29099 77.0616 8.069 76.2775 8.847 76.2726 10.1133 77.0506 10.8974 77.5564 11.4071 78.2966 11.6066 78.99 11.42L82.21 14.64C80.1354 15.5312 78.7905 17.572 78.79 19.83 78.7964 20.3139 78.8671 20.7947 79 21.26L79 36.47 79 36.47C79.0002 37.8015 78.0785 38.9557 76.78 39.25 72.7108 38.2875 68.4881 38.165 64.37 38.89 64.07 38.89 63.79 39.01 63.49 39.07L69.3 10.34C70.0752 7.11823 68.0918 3.87808 64.87 3.10293 61.6482 2.32778 58.4081 4.31115 57.6329 7.53292 57.5958 7.68732 57.5648 7.84314 57.54 8L56.84 11.46 56.57 8.11C56.2939 4.79629 53.3837 2.33386 50.07 2.61 46.7563 2.88614 44.2939 5.79629 44.57 9.11L44.87 12.86 43.56 9.34C42.345 6.25549 38.8595 4.73997 35.775 5.955 32.6905 7.17003 31.175 10.6555 32.39 13.74L33.68 17 31.68 14.35C29.6586 11.7239 25.8911 11.2336 23.265 13.255 20.6389 15.2764 20.1486 19.0439 22.17 21.67L24.23 24.35 21.37 22.25C18.7462 20.226 14.9785 20.7122 12.9545 23.336 10.9305 25.9597 11.4167 29.7275 14.0405 31.7515 14.1156 31.8094 14.1922 31.8656 14.27 31.92L16.27 33.4 13.43 32.4C10.2802 31.3708 6.89241 33.09 5.86325 36.2398 4.86905 39.2827 6.43869 42.5701 9.43 43.71L12.75 44.89 9.4 44.69C6.08629 44.4912 3.23882 47.0163 3.04 50.33 2.84118 53.6437 5.36629 56.4912 8.68 56.69L12.05 56.89 8.59 57.67C5.36914 58.4489 3.38956 61.6914 4.16848 64.9122 4.80653 67.5506 7.13643 69.432 9.85 69.5 10.2939 69.503 10.7366 69.456 11.17 69.36L15.08 68.48 11.87 70.26C8.97327 71.8699 7.93009 75.5233 9.54 78.42 11.1499 81.3167 14.8033 82.3599 17.7 80.75L47.17 64.37C49.1552 66.1791 51.4435 67.6245 53.93 68.64L53.93 85.81C52.8254 85.81 51.93 86.7054 51.93 87.81 51.93 88.9146 52.8254 89.81 53.93 89.81L55.13 89.81 58.53 93.21C59.2637 93.9832 60.4853 94.0152 61.2585 93.2815 61.283 93.2583 61.3068 93.2345 61.33 93.21 62.1032 92.4763 62.1352 91.2547 61.4015 90.4815 61.3783 90.4571 61.3545 90.4332 61.33 90.41L60.73 89.81 62.94 89.81C64.0446 89.81 64.94 88.9146 64.94 87.81 64.94 86.7054 64.0446 85.81 62.94 85.81L57.94 85.81 57.94 69.62C58.26 69.62 58.58 69.62 58.94 69.62 59.9448 69.6104 60.9475 69.5268 61.94 69.37L61.94 81.78C60.8354 81.78 59.94 82.6754 59.94 83.78L62.94 83.78C65.1491 83.7845 66.9364 85.5789 66.9319 87.7881 66.9309 88.2995 66.8318 88.8059 66.64 89.28 67.0066 89.585 67.4635 89.7607 67.94 89.78 68.4675 89.7725 68.9707 89.5568 69.34 89.18 70.1132 88.4463 70.1452 87.2247 69.4115 86.4515 69.3883 86.4271 69.3645 86.4032 69.34 86.38L68.74 85.78 70.97 85.78C72.0746 85.78 72.97 84.8846 72.97 83.78 72.97 82.6754 72.0746 81.78 70.97 81.78L65.97 81.78 65.97 68.41C68.0282 67.7214 69.9165 66.6034 71.51 65.13 73.2305 63.4869 75.2368 62.172 77.43 61.25 84.59 58.08 89.74 52.17 89.74 45.25 89.6999 40.5885 88.022 36.0895 85 32.54ZM10.39 40.88C8.80414 40.4002 7.90752 38.7256 8.38734 37.1398 8.86715 35.5539 10.5417 34.6573 12.1276 35.1371 12.2164 35.164 12.304 35.195 12.39 35.23L16.16 36.57C17.723 37.1198 18.5443 38.8326 17.9945 40.3955 17.5715 41.598 16.4347 42.4019 15.16 42.4 14.8189 42.3973 14.4807 42.3364 14.16 42.22ZM8.82 53.67C7.16315 53.5706 5.90059 52.1469 6 50.49 6.09941 48.8331 7.52315 47.5706 9.18 47.67L13.18 47.91C14.8369 47.9569 16.1419 49.3381 16.095 50.995 16.0481 52.6519 14.6669 53.9569 13.01 53.91L12.82 53.91ZM14.42 65.55 10.52 66.43C10.3033 66.4777 10.0819 66.5012 9.86 66.5 8.20322 66.4847 6.87251 65.1293 6.88777 63.4725 6.90051 62.0909 7.85516 60.8967 9.2 60.58L13.11 59.7C14.7404 59.405 16.3012 60.4876 16.5962 62.118 16.8741 63.6539 15.9278 65.1463 14.42 65.55ZM19.74 76.18 16.25 78.13C15.8017 78.3742 15.3004 78.5047 14.79 78.51 13.1332 78.5193 11.7825 77.1837 11.7733 75.5268 11.7671 74.4257 12.3647 73.4097 13.33 72.88L16.83 70.94C18.2404 70.0706 20.0886 70.5092 20.958 71.9197 21.8274 73.3301 21.3887 75.1783 19.9783 76.0477 19.9009 76.0954 19.8214 76.1395 19.74 76.18ZM23.42 31.24C22.4388 32.5723 20.5642 32.8586 19.23 31.88L16 29.51C14.6234 28.588 14.2549 26.7246 15.1769 25.348 16.0989 23.9714 17.9624 23.6029 19.339 24.5249 19.4115 24.5735 19.4819 24.6252 19.55 24.68L22.78 27C24.1238 27.9692 24.4275 29.8443 23.4583 31.1881 23.4457 31.2055 23.433 31.2228 23.42 31.24ZM31.15 23.57C29.8411 24.5371 27.9997 24.2842 27 23L24.56 19.83C23.5045 18.5528 23.6843 16.6619 24.9615 15.6064 26.2386 14.5509 28.1296 14.7307 29.1851 16.0079 29.2285 16.0605 29.2702 16.1145 29.31 16.17L31.75 19.34C32.7547 20.6575 32.5012 22.54 31.1837 23.5447 31.1725 23.5532 31.1613 23.5616 31.15 23.57ZM59.68 12.47 60.48 8.55C60.7822 6.92094 62.3478 5.84534 63.9769 6.14757 65.606 6.4498 66.6816 8.01541 66.3793 9.64447 66.3734 9.67642 66.367 9.70826 66.36 9.74L65.57 13.66C65.289 15.061 64.0589 16.0693 62.63 16.07 62.4181 16.0685 62.207 16.045 62 16 60.3889 15.6595 59.3535 14.084 59.68 12.47ZM50.35 5.56C51.9977 5.42751 53.4421 6.65278 53.58 8.3L53.9 12.3C54.0325 13.9477 52.8072 15.3921 51.16 15.53L50.91 15.53C49.3461 15.5354 48.0403 14.3385 47.91 12.78L47.59 8.78C47.4636 7.12888 48.699 5.68765 50.35 5.56ZM36.65 16.36 35.18 12.64C34.5725 11.0964 35.3314 9.35251 36.875 8.745 38.4186 8.13749 40.1625 8.89637 40.77 10.44L42.23 14.16C42.877 15.6853 42.1649 17.4463 40.6396 18.0933 39.1143 18.7403 37.3533 18.0282 36.7063 16.5029 36.6863 16.4558 36.6676 16.4081 36.65 16.36Z" fill="#385723"/><path d="M17.41 76.05C16.3056 76.0678 15.3958 75.1869 15.378 74.0825 15.3661 73.3433 15.763 72.6578 16.41 72.3L17.28 71.81C18.2465 71.2577 19.4777 71.5935 20.03 72.56 20.5823 73.5265 20.2465 74.7577 19.28 75.31L18.4 75.8C18.0972 75.9676 17.7561 76.0537 17.41 76.05Z" fill="#385723"/></svg>