<svg viewBox="0 0 96 96" xmlns="http://www.w3.org/2000/svg" xmlns:xlink="http://www.w3.org/1999/xlink" id="Icons_Lion" overflow="hidden"><path d="M27.76 77C27.76 78.6569 29.1031 80 30.76 80 32.4169 80 33.76 78.6569 33.76 77L33.76 56 27.76 56Z" fill="#C55A11"/><path d="M4.91 57.51C3.91073 57.5018 3.04824 58.2086 2.86 59.19 2.68318 60.2803 3.42372 61.3075 4.51404 61.4844 4.6284 61.5029 4.74416 61.5115 4.86 61.51L7.65 61.51C11.97 61.2 15.65 58.04 15.65 53.99L15.65 47.23C15.6561 44.5325 17.3948 42.1443 19.96 41.31 19.071 42.4405 18.4058 43.7302 18 45.11 17.8209 45.7234 17.7398 46.3613 17.76 47L17.76 76.9C17.7336 78.3684 18.7318 79.6577 20.16 80 21.7833 80.3315 23.3681 79.2843 23.6996 77.6609 23.7373 77.4763 23.7575 77.2885 23.76 77.1L23.76 54 34.28 54C39.75 64.81 51.23 63.51 56.76 63.68L57.26 63.68 57.26 76.78C57.2288 78.409 58.4413 79.7947 60.06 79.98 61.7424 80.063 63.1736 78.7665 63.2566 77.0841 63.2584 77.0494 63.2595 77.0147 63.26 76.98L63.26 63.48 67.26 63.48 67.26 76.88C67.2336 78.3484 68.2318 79.6377 69.66 79.98 71.2834 80.3115 72.8681 79.2643 73.1996 77.6409 73.2373 77.4563 73.2575 77.2684 73.26 77.08L73.26 56.83C74.2929 57.6051 74.9561 58.7756 75.09 60.06L75.09 60.06C75.24 59.87 75.4 59.69 75.57 59.5 75.74 59.31 75.9 59.13 76.06 58.94 76.867 58.0066 77.2699 56.7906 77.18 55.56 77.03 53.56 77 51.66 77 51.66 78.2245 52.2002 79.083 53.3348 79.27 54.66L79.27 54.66C79.5978 53.9894 79.8622 53.2897 80.06 52.57 80.52 50.74 80.48 47.41 80.78 45.36 80.7931 44.714 81.3275 44.2009 81.9736 44.214 82.0058 44.2147 82.0379 44.2167 82.07 44.22L88.07 45.04C89.1745 45.0323 90.0637 44.1306 90.056 43.0261 90.0549 42.8724 90.0361 42.7194 90 42.57L89.48 40.57 90.05 40.73C90.7804 40.931 91.5501 40.5819 91.88 39.9L93.11 37.34C93.4433 36.6537 93.2659 35.8286 92.68 35.34 91.32 34.2 89 32.23 89 32.18 89.6 29.67 86.73 27.95 86.73 27.95 87.6801 26.9451 88.144 25.5754 88 24.2 87.9027 21.3518 85.8704 18.9394 83.08 18.36L83.08 22C81 18.73 76 15.5 66.78 16.13 64.9217 16.1886 63.0763 16.4604 61.28 16.94 61.28 16.94 61.28 16.94 61.28 16.94 63.4139 17.6792 65.3124 18.9736 66.78 20.69 66.78 20.69 61.32 19.79 58.55 24.12 55.78 28.45 49.82 29.28 49.29 29.34 49.29 29.34 49.29 29.34 49.29 29.34 50.2358 30.3172 51.3966 31.0603 52.68 31.51 53.583 31.6781 54.4943 31.7983 55.41 31.87 51.41 35.01 45.41 34.3 44.89 34.23 44.89 34.23 44.89 34.23 44.89 34.23 45.7519 35.2128 46.6772 36.1381 47.66 37L27.76 37 21.85 37C16.2008 37.0055 11.621 41.5808 11.61 47.23L11.61 53.5C11.61 55.7091 9.81914 57.5 7.61 57.5Z" fill="#C55A11"/></svg>